<svg width="397" height="71" viewBox="0 0 397 71" fill="none" xmlns="http://www.w3.org/2000/svg">
<rect x="55" y="21" width="116" height="36" stroke="black" stroke-width="2"/>
<rect x="54" y="20" width="2" height="31" fill="black"/>
<path d="M86.75 44.75V32.5H90.25V43H97.25V44.75H86.75ZM104.25 34.25V32.5H107.75V34.25H104.25ZM100.75 44.75V43H104.25V37.75H102.5V36H107.75V43H111.25V44.75H100.75ZM113 44.75V32.5H116.5V39.5H120V37.75H121.75V36H125.25V37.75H123.5V39.5H121.75V41.25H123.5V43H125.25V44.75H121.75V43H120V41.25H116.5V44.75H113ZM128.75 44.75V43H127V37.75H128.75V36H137.5V37.75H139.25V41.25H130.5V43H137.5V44.75H128.75ZM130.5 39.5H135.75V37.75H130.5V39.5Z" fill="black"/>
<path d="M26 27H23V30H26V27Z" fill="black"/>
<path d="M29 27H26V30H29V27Z" fill="black"/>
<path d="M23 30H20V33H23V30Z" fill="black"/>
<path d="M23 33H20V36H23V33Z" fill="black"/>
<path d="M23 36H20V39H23V36Z" fill="black"/>
<path d="M32 27H29V30H32V27Z" fill="black"/>
<path d="M26 39H23V42H26V39Z" fill="black"/>
<path d="M29 42H26V45H29V42Z" fill="black"/>
<path d="M32 45H29V48H32V45Z" fill="black"/>
<path d="M41 27H44V30H41V27Z" fill="black"/>
<path d="M38 27H41V30H38V27Z" fill="black"/>
<path d="M44 30H47V33H44V30Z" fill="black"/>
<path d="M44 33H47V36H44V33Z" fill="black"/>
<path d="M44 36H47V39H44V36Z" fill="black"/>
<path d="M35 27H38V30H35V27Z" fill="black"/>
<path d="M41 39H44V42H41V39Z" fill="black"/>
<path d="M38 42H41V45H38V42Z" fill="black"/>
<path d="M35 45H38V48H35V45Z" fill="black"/>
<path d="M35 30H32V33H35V30Z" fill="black"/>
<path d="M35 48H32V51H35V48Z" fill="black"/>
<rect x="254" y="21" width="116" height="36" stroke="black" stroke-width="2"/>
<rect x="253" y="20" width="118" height="38" fill="black"/>
<path d="M285.75 44.75V32.5H289.25V43H296.25V44.75H285.75ZM303.25 34.25V32.5H306.75V34.25H303.25ZM299.75 44.75V43H303.25V37.75H301.5V36H306.75V43H310.25V44.75H299.75ZM312 44.75V32.5H315.5V39.5H319V37.75H320.75V36H324.25V37.75H322.5V39.5H320.75V41.25H322.5V43H324.25V44.75H320.75V43H319V41.25H315.5V44.75H312ZM327.75 44.75V43H326V37.75H327.75V36H336.5V37.75H338.25V41.25H329.5V43H336.5V44.75H327.75ZM329.5 39.5H334.75V37.75H329.5V39.5Z" fill="white"/>
<path d="M225 27H222V30H225V27Z" fill="black"/>
<path d="M228 27H225V30H228V27Z" fill="black"/>
<path d="M222 30H219V33H222V30Z" fill="black"/>
<path d="M222 33H219V36H222V33Z" fill="black"/>
<path d="M222 36H219V39H222V36Z" fill="black"/>
<path d="M231 27H228V30H231V27Z" fill="black"/>
<path d="M225 39H222V42H225V39Z" fill="black"/>
<path d="M228 42H225V45H228V42Z" fill="black"/>
<path d="M231 45H228V48H231V45Z" fill="black"/>
<path d="M240 27H243V30H240V27Z" fill="black"/>
<path d="M237 27H240V30H237V27Z" fill="black"/>
<path d="M243 30H246V33H243V30Z" fill="black"/>
<path d="M243 33H246V36H243V33Z" fill="black"/>
<path d="M243 36H246V39H243V36Z" fill="black"/>
<path d="M234 27H237V30H234V27Z" fill="black"/>
<path d="M240 39H243V42H240V39Z" fill="black"/>
<path d="M237 42H240V45H237V42Z" fill="black"/>
<path d="M234 45H237V48H234V45Z" fill="black"/>
<path d="M234 30H231V33H234V30Z" fill="black"/>
<path d="M234 48H231V51H234V48Z" fill="black"/>
</svg>
